<?xml version="1.0" encoding="UTF-8" standalone="no"?>
<!-- Created with Inkscape (http://www.inkscape.org/) -->

<svg
   xmlns:dc="http://purl.org/dc/elements/1.1/"
   xmlns:cc="http://creativecommons.org/ns#"
   xmlns:rdf="http://www.w3.org/1999/02/22-rdf-syntax-ns#"
   xmlns:svg="http://www.w3.org/2000/svg"
   xmlns="http://www.w3.org/2000/svg"
   xmlns:xlink="http://www.w3.org/1999/xlink"
   xmlns:sodipodi="http://sodipodi.sourceforge.net/DTD/sodipodi-0.dtd"
   xmlns:inkscape="http://www.inkscape.org/namespaces/inkscape"
   width="744.09448819"
   height="1052.3622047"
   id="svg2"
   version="1.1"
   inkscape:version="0.48.0 r9654"
   sodipodi:docname="phlegiscope.svg">
  <defs
     id="defs4">
    <linearGradient
       gradientTransform="matrix(0.06735453,0,9.7092044e-8,10.839881,343.2846,-3566.8071)"
       gradientUnits="userSpaceOnUse"
       y2="336.14596"
       x2="281.89358"
       y1="336.14596"
       x1="181.85641"
       id="linearGradient5058"
       xlink:href="#linearGradient5052"
       inkscape:collect="always" />
    <linearGradient
       id="linearGradient5052"
       inkscape:collect="always">
      <stop
         id="stop5054"
         offset="0"
         style="stop-color:#190909;stop-opacity:1;" />
      <stop
         id="stop5056"
         offset="1"
         style="stop-color:#190909;stop-opacity:0;" />
    </linearGradient>
  </defs>
  <sodipodi:namedview
     id="base"
     pagecolor="#ffffff"
     bordercolor="#666666"
     borderopacity="1.0"
     inkscape:pageopacity="0.0"
     inkscape:pageshadow="2"
     inkscape:zoom="0.70317996"
     inkscape:cx="372.04724"
     inkscape:cy="526.18109"
     inkscape:document-units="px"
     inkscape:current-layer="layer1"
     showgrid="false"
     inkscape:window-width="1440"
     inkscape:window-height="852"
     inkscape:window-x="0"
     inkscape:window-y="0"
     inkscape:window-maximized="1" />
  <metadata
     id="metadata7">
    <rdf:RDF>
      <cc:Work
         rdf:about="">
        <dc:format>image/svg+xml</dc:format>
        <dc:type
           rdf:resource="http://purl.org/dc/dcmitype/StillImage" />
        <dc:title></dc:title>
      </cc:Work>
    </rdf:RDF>
  </metadata>
  <g
     inkscape:label="Layer 1"
     inkscape:groupmode="layer"
     id="layer1">
    <g
       id="g3127"
       inkscape:export-filename="/Users/antoniohilario/Library/Application Support/Firefox/Profiles/14bvu25h.ExtensionDevelopment/extensions/phlegiscope@avahilario.net/skin/default/phlegiscope64.png"
       inkscape:export-xdpi="18.200001"
       inkscape:export-ydpi="18.200001">
      <path
         id="path3779"
         d="m 44.0842,27.73159 0,82.4375 c 127.06161,4.39427 229.28557,106.41995 233.96875,233.40625 l 82.4375,0 C 355.74961,171.09625 216.63533,32.18383 44.0842,27.73159 z"
         style="opacity:0.98999999;fill:#1e00ff;fill-opacity:1;stroke:#000000;stroke-width:0.15644883;stroke-miterlimit:4;stroke-opacity:1;stroke-dasharray:none;stroke-dashoffset:0"
         inkscape:connector-curvature="0" />
      <path
         id="path3777"
         d="m 44.09741,137.03672 0,92.30451 c 61.00953,4.80223 109.72313,53.30218 114.84186,114.2209 l 92.37757,0 C 245.93393,231.71738 156.03068,142.09275 44.09741,137.03672 z"
         style="opacity:0.98999999;fill:#ff0006;fill-opacity:1;stroke:#000000;stroke-width:0.18286896;stroke-miterlimit:4;stroke-opacity:1;stroke-dasharray:none;stroke-dashoffset:0"
         inkscape:connector-curvature="0" />
      <path
         id="path3763"
         d="m 44.17802,252.55152 0,90.93 92.02968,0 c -8.35576,-46.51853 -45.326516,-83.08664 -92.02968,-90.93 z"
         style="opacity:0.98999999;fill:#fcff00;fill-opacity:1;stroke:#000000;stroke-width:0.34408808;stroke-miterlimit:4;stroke-opacity:1;stroke-dasharray:none;stroke-dashoffset:0"
         inkscape:connector-curvature="0" />
    </g>
    <g
       id="layer1-0"
       inkscape:label="Layer 1"
       transform="translate(-122.51841,271.60361)">
      <g
         inkscape:export-filename="/Users/antoniohilario/Desktop/SAA/Website Tools/phlegiscope.png"
         inkscape:export-ydpi="250.64"
         inkscape:export-xdpi="250.64"
         id="g4257">
        <path
           sodipodi:nodetypes="cssscsssccsssscssscssssscccssssssccccssssssssssssccscsssssssssssscsscsssssssssscscscsssssss"
           inkscape:connector-curvature="0"
           id="path4243"
           d="m 363.26168,389.82389 c -104.47393,-0.13893 -190.33263,-0.63263 -190.79713,-1.09713 -0.94118,-0.94118 -1.11791,-259.11595 -0.17802,-260.05593 0.32686,-0.32689 86.86615,-0.71026 192.30954,-0.85192 152.73612,-0.2052 192.0643,-0.002 193.43209,1 1.60718,1.17724 1.71617,9.494 1.70619,130.20286 -0.006,70.91991 -0.38924,129.32387 -0.85196,129.78659 -0.46271,0.46271 -1.92733,0.93733 -3.25471,1.05471 -1.32737,0.11737 -87.89208,0.0997 -192.366,-0.0392 z m 192.8456,-3.8292 c 0.33385,-0.86998 0.60699,-58.18988 0.60699,-127.37755 0,-99.41661 -0.26212,-126.01333 -1.25,-126.83328 -0.99889,-0.82908 -1.25,24.50883 -1.25,126.12756 l 0,127.16506 -186.41667,0 c -133.46278,0 -186.5197,-0.30912 -186.7794,-1.08821 -0.19951,-0.59852 27.438,-19.92474 61.41667,-42.94716 112.13191,-75.97555 120.38456,-81.6492 120.08068,-82.5548 -0.16571,-0.4938 -18.30128,-13.09941 -40.30128,-28.01246 -22,-14.91305 -57.1,-38.70652 -78,-52.87438 -20.9,-14.16786 -43.625,-29.58977 -50.5,-34.27091 -8.45061,-5.75397 -12.60352,-9.1981 -12.81955,-10.63163 -0.26323,-1.74674 -1.01226,-2.12045 -4.25,-2.12045 l -3.93045,0 0,128.5 0,128.5 191.39301,0 c 173.6029,0 191.44943,-0.14703 192,-1.58179 z M 245.57784,309.07648 c -1.75171,-1.925 -3.80174,-3.5 -4.55563,-3.5 -2.31292,0 -2.53307,-2.56643 -0.76171,-8.87952 1.88951,-6.73414 1.49692,-9.12048 -1.50045,-9.12048 -1.45926,0 -2.84433,1.63896 -5.00901,5.92715 -17.13851,13.78493 -28.80355,35.2009 -52.43864,56.28231 -5.06032,0 -5.00914,-11.83679 -4.83726,-16.97439 14.75476,-17.30614 35.40657,-47.80212 48.71667,-55.73756 1.24461,-0.74057 1.50464,-1.72034 0.99522,-3.75 -0.80236,-3.19689 -2.00638,-3.35057 -8.41568,-1.07419 -5.22298,1.85504 -8.05708,1.34329 -8.05708,-1.45484 0,-1.01437 -1.35,-3.13768 -3,-4.71848 -1.65,-1.5808 -3,-3.3808 -3,-4 0,-0.6192 1.35,-2.4192 3,-4 1.65,-1.5808 3,-3.70411 3,-4.71848 0,-2.88744 2.46194,-3.14683 8.97888,-0.94603 5.85678,1.97787 6.04824,1.98236 7.02104,0.16465 1.78579,-3.33678 1.07057,-4.44839 -5.01179,-7.78934 -5.80949,-3.19108 -7.00203,-4.78907 -5.04541,-6.7608 0.51849,-0.5225 1.08099,-3.425 1.25,-6.45 l 0.30728,-5.5 4.5,-0.1588 c 2.475,-0.0873 5.51168,-0.47711 6.74818,-0.86616 2.01042,-0.63254 2.57859,-0.001 5.37235,5.96884 2.22656,4.75804 3.54349,6.51529 4.58361,6.11616 0.80269,-0.30802 1.87263,-0.56004 2.37765,-0.56004 1.379,0 1.10655,-4.21474 -0.58179,-9 -2.05903,-5.83592 -1.88541,-7.90062 0.75,-8.91865 1.2375,-0.47803 3.34094,-2.0419 4.67431,-3.47525 3.15551,-3.39212 5.1934,-3.29074 7.91757,0.3939 1.2199,1.65 2.82442,3 3.56561,3 3.15784,0 3.52152,2.46755 1.39195,9.44438 -2.02841,6.64539 -2.03664,6.90901 -0.25644,8.21072 1.01159,0.7397 2.20745,1.3449 2.65747,1.3449 0.45001,0 2.27591,-2.95607 4.05754,-6.56904 2.96149,-6.00559 3.45389,-6.51311 5.74067,-5.91696 1.37572,0.35864 4.12839,0.60829 6.11703,0.55476 1.98863,-0.0535 4.06451,0.47161 4.61305,1.16696 0.54854,0.69536 1.26755,4.3072 1.59779,8.02633 l 0.60045,6.76205 -5.4635,3.08341 c -4.27887,2.41485 -5.4635,3.61158 -5.4635,5.51933 0,3.32434 2.10422,3.86639 7.66021,1.97327 6.48256,-2.20883 7.11426,-2.07565 8.75254,1.84531 0.79177,1.89498 2.37281,4.02822 3.51342,4.74054 2.92466,1.82649 2.5757,4.95904 -0.92617,8.31404 -1.65,1.5808 -3,3.68999 -3,4.68709 0,2.32003 -2.72993,2.34625 -9.09017,0.0873 -5.09772,-1.81055 -6.46149,-1.39626 -7.07626,2.14963 -0.24812,1.43113 1.12294,2.795 5.35205,5.32397 l 5.68561,3.39995 -0.56276,7.17604 c -0.30953,3.94681 -0.84305,7.45575 -1.18562,7.79762 -0.34257,0.34188 -3.6273,0.88436 -7.29941,1.20552 l -6.67656,0.58392 -3.02187,-6.45757 c -2.93384,-6.26949 -3.09618,-6.42372 -5.57344,-5.29501 -3.04672,1.38818 -3.00151,0.77456 -0.66024,8.96155 2.01084,7.03156 1.8213,8.23257 -1.46071,9.25528 -1.13816,0.35466 -3.06413,1.99031 -4.27994,3.63478 -1.2158,1.64446 -2.63617,2.98993 -3.15637,2.98993 -0.52019,0 -2.37903,-1.575 -4.13074,-3.5 z"
           style="fill:#abacac" />
        <path
           sodipodi:nodetypes="sssssssssscsssssssssssssssssscsscsssssssssscscssssssscssssssssssssssssscsssssss"
           inkscape:connector-curvature="0"
           id="path4241"
           d="m 184.23599,383.61162 c -0.70847,-1.14633 -6.62389,2.96013 96.91125,-67.2755 45.61313,-30.9428 83.04949,-56.70964 83.19192,-57.25964 0.14243,-0.55 -2.97741,-3.08649 -6.93297,-5.63663 -3.95555,-2.55015 -21.81692,-14.565 -39.69192,-26.69967 -17.875,-12.13466 -38.8,-26.32149 -46.5,-31.52627 -7.7,-5.20479 -20.525,-13.90316 -28.5,-19.32973 -7.975,-5.42656 -24.9625,-16.96772 -37.75,-25.647 -12.7875,-8.67929 -23.25,-16.20357 -23.25,-16.72061 0,-0.58342 70.56651,-0.94009 185.99244,-0.94009 l 185.99245,0 -7.6e-4,124.65756 c -5.5e-4,90.1471 -0.3092,125.0292 -1.11489,126 -0.92481,1.11432 -32.26525,1.34244 -184.43267,1.34244 -116.68221,0 -183.5353,-0.35073 -183.91485,-0.96486 z m 62.13665,-75.62615 c -1.0129,-1.3905 -2.97115,-2.95761 -4.35166,-3.48248 -1.66495,-0.63301 -2.31323,-1.46713 -1.92552,-2.47749 0.32148,-0.83776 1.31368,-4.03147 2.2049,-7.09715 1.81843,-6.2552 1.07264,-8.0423 -3.57645,-8.57005 -2.12757,-0.24152 -2.96033,0.61801 -5.82373,6.01093 -2.90185,5.46536 -3.62618,6.20229 -5.5089,5.60474 -1.19226,-0.37841 -3.74483,-0.73515 -5.67238,-0.79275 -3.4521,-0.10317 -3.51239,-0.17968 -4.02245,-5.10474 -0.28479,-2.75 -0.87515,-5.56459 -1.31189,-6.25465 -0.54562,-0.8621 1.121,-2.4265 5.32672,-5 5.88308,-3.59988 6.10051,-3.87793 5.5982,-7.15904 -0.81199,-5.30403 -1.77649,-5.65281 -8.6756,-3.13727 -5.05484,1.84309 -6.33265,2.0069 -7.03306,0.90163 -0.47076,-0.74287 -0.86281,-1.83473 -0.87124,-2.42636 -0.008,-0.59162 -1.14031,-2.13256 -2.51531,-3.42431 -3.1315,-2.94189 -3.1315,-4.05811 0,-7 1.375,-1.29175 2.50689,-2.83269 2.51531,-3.42431 0.0473,-3.32636 1.6482,-3.6954 7.07799,-1.63166 7.0404,2.67589 7.56388,2.61958 9.44385,-1.01586 1.94269,-3.75675 1.23328,-4.83263 -5.7359,-8.69906 -4.4733,-2.48174 -4.86851,-2.9897 -4.36021,-5.60411 0.30743,-1.58125 0.55896,-4.61875 0.55896,-6.75 0,-3.86461 0.0109,-3.875 4.06574,-3.875 2.23616,0 4.95309,-0.4749 6.03763,-1.05532 1.77444,-0.94966 2.26952,-0.39893 4.94422,5.5 2.98252,6.57781 3.5703,7.03258 7.66929,5.93369 3.22393,-0.86429 3.49778,-3.07853 1.28355,-10.37837 -1.37171,-4.52224 -1.62864,-6.61579 -0.84442,-6.88053 0.61996,-0.2093 2.91031,-1.99147 5.08966,-3.96038 l 3.96245,-3.57984 2.64594,3.08119 c 1.45527,1.69465 3.43344,3.35019 4.39594,3.67899 2.12566,0.72613 2.13782,1.06429 0.26082,7.25164 -1.99494,6.57615 -1.89048,9.13538 0.42344,10.37375 3.66279,1.96026 5.0016,1.10571 8.16986,-5.21482 3.79019,-7.56123 3.5496,-7.28227 5.14133,-5.96126 0.71158,0.59056 3.29669,1.21719 5.74469,1.39251 l 4.45091,0.31875 0.14713,4.5 c 0.0809,2.475 0.31918,5.37023 0.52947,6.43384 0.29042,1.46888 -0.94004,2.6873 -5.11765,5.06757 -4.80995,2.74055 -5.47334,3.49245 -5.28754,5.99291 0.11686,1.57255 0.88036,3.52707 1.69668,4.34339 1.31227,1.31227 2.14797,1.23969 7.21421,-0.62658 5.80621,-2.13885 7.37665,-2.10462 7.37665,0.1608 0,0.68964 1.35,2.54727 3,4.12807 1.65,1.5808 3,3.3808 3,4 0,0.6192 -1.35,2.4192 -3,4 -1.65,1.5808 -3,3.43843 -3,4.12807 0,2.33752 -1.83769,2.40459 -7.53003,0.27481 -6.46142,-2.41753 -8.36625,-1.63974 -8.75751,3.5759 -0.18348,2.44599 0.53769,3.29038 5.28754,6.19098 3.87615,2.36706 5.38711,3.87118 5.11765,5.09447 -0.21029,0.95467 -0.45208,3.62757 -0.53732,5.93976 -0.18989,5.1508 -0.77081,5.77923 -5.4158,5.85873 -2.01549,0.0345 -4.39697,0.39901 -5.29218,0.81003 -1.291,0.59276 -2.26258,-0.60949 -4.69746,-5.81271 -1.6884,-3.60802 -3.52228,-6.56004 -4.0753,-6.56004 -0.55302,0 -2.15166,0.52223 -3.55254,1.16052 -3.01071,1.37177 -3.18078,3.34246 -0.93971,10.88898 1.50954,5.08319 1.50072,5.4745 -0.14509,6.4315 -0.96384,0.56045 -2.88653,2.2565 -4.27264,3.769 -3.09135,3.37322 -4.1707,3.3995 -6.53124,0.15899 z"
           style="fill:#5c82f7" />
        <path
           sodipodi:nodetypes="csscssssscscscscssssccsscsscsssssssssscscssssssscssssssssssssssssscsssssss"
           inkscape:connector-curvature="0"
           id="path4239"
           d="m 184.254,383.64077 c -0.73584,-1.19062 -3.06421,0.42708 94.46027,-65.62857 45.375,-30.73356 83.52603,-56.89749 84.78006,-58.14206 l 2.28005,-2.26286 -18.78005,-12.72127 c -10.32903,-6.99669 -26.65506,-18.06606 -36.28006,-24.59859 -9.625,-6.53253 -24.475,-16.59219 -33,-22.35479 -8.525,-5.76261 -28.1,-19.04255 -43.5,-29.51099 -15.4,-10.46843 -32.82648,-22.25363 -38.72551,-26.18933 -5.89903,-3.93571 -10.73653,-7.49453 -10.75,-7.9085 -0.0135,-0.41396 82.66301,-0.63896 183.72551,-0.5 l 183.75,0.25267 0.46603,62 c 1.11418,148.22939 1.10096,185.71436 -0.066,187.12043 -0.96566,1.16358 -29.84596,1.37957 -184.46346,1.37957 -112.73715,0 -183.54119,-0.36027 -183.89684,-0.93571 z m 62.11864,-75.6553 c -1.0129,-1.3905 -2.97115,-2.95761 -4.35166,-3.48248 -1.66495,-0.63301 -2.31323,-1.46713 -1.92552,-2.47749 0.32148,-0.83776 1.31368,-4.03147 2.2049,-7.09715 1.81843,-6.2552 1.07264,-8.0423 -3.57645,-8.57005 -7.16225,-0.529 -8.82742,-1.89134 -11.41443,-12.69551 -0.81199,-5.30403 -1.77649,-5.65281 -8.6756,-3.13727 -5.05484,1.84309 -6.33265,2.0069 -7.03306,0.90163 -0.47076,-0.74287 -0.86281,-1.83473 -0.87124,-2.42636 -0.008,-0.59162 -1.14031,-2.13256 -2.51531,-3.42431 -3.1315,-2.94189 -3.1315,-4.05811 0,-7 1.375,-1.29175 2.50689,-2.83269 2.51531,-3.42431 0.0473,-3.32636 1.6482,-3.6954 7.07799,-1.63166 7.0404,2.67589 7.56388,2.61958 9.44385,-1.01586 1.94269,-3.75675 1.23328,-4.83263 -5.7359,-8.69906 -4.4733,-2.48174 -4.86851,-2.9897 -4.36021,-5.60411 0.30743,-1.58125 0.55896,-4.61875 0.55896,-6.75 0,-3.86461 0.0109,-3.875 4.06574,-3.875 2.23616,0 4.95309,-0.4749 6.03763,-1.05532 1.77444,-0.94966 2.26952,-0.39893 4.94422,5.5 2.98252,6.57781 3.5703,7.03258 7.66929,5.93369 3.22393,-0.86429 3.49778,-3.07853 1.28355,-10.37837 -1.37171,-4.52224 -1.62864,-6.61579 -0.84442,-6.88053 0.61996,-0.2093 2.91031,-1.99147 5.08966,-3.96038 l 3.96245,-3.57984 2.64594,3.08119 c 1.45527,1.69465 3.43344,3.35019 4.39594,3.67899 2.12566,0.72613 2.13782,1.06429 0.26082,7.25164 -1.99494,6.57615 -1.89048,9.13538 0.42344,10.37375 3.66279,1.96026 5.0016,1.10571 8.16986,-5.21482 3.79019,-7.56123 3.5496,-7.28227 5.14133,-5.96126 0.71158,0.59056 3.29669,1.21719 5.74469,1.39251 l 4.45091,0.31875 0.14713,4.5 c 0.0809,2.475 0.31918,5.37023 0.52947,6.43384 0.29042,1.46888 -0.94004,2.6873 -5.11765,5.06757 -4.80995,2.74055 -5.47334,3.49245 -5.28754,5.99291 0.11686,1.57255 0.88036,3.52707 1.69668,4.34339 1.31227,1.31227 2.14797,1.23969 7.21421,-0.62658 5.80621,-2.13885 7.37665,-2.10462 7.37665,0.1608 0,0.68964 1.35,2.54727 3,4.12807 1.65,1.5808 3,3.3808 3,4 0,0.6192 -1.35,2.4192 -3,4 -1.65,1.5808 -3,3.43843 -3,4.12807 0,2.33752 -1.83769,2.40459 -7.53003,0.27481 -6.46142,-2.41753 -8.36625,-1.63974 -8.75751,3.5759 -0.18348,2.44599 0.53769,3.29038 5.28754,6.19098 3.87615,2.36706 5.38711,3.87118 5.11765,5.09447 -0.21029,0.95467 -0.45208,3.62757 -0.53732,5.93976 -0.18989,5.1508 -0.77081,5.77923 -5.4158,5.85873 -2.01549,0.0345 -4.39697,0.39901 -5.29218,0.81003 -1.291,0.59276 -2.26258,-0.60949 -4.69746,-5.81271 -1.6884,-3.60802 -3.52228,-6.56004 -4.0753,-6.56004 -0.55302,0 -2.15166,0.52223 -3.55254,1.16052 -3.01071,1.37177 -3.18078,3.34246 -0.93971,10.88898 1.50954,5.08319 1.50072,5.4745 -0.14509,6.4315 -0.96384,0.56045 -2.88653,2.2565 -4.27264,3.769 -3.09135,3.37322 -4.1707,3.3995 -6.53124,0.15899 z"
           style="fill:#d7d714" />
        <path
           sodipodi:nodetypes="csscssssscscscsc"
           inkscape:connector-curvature="0"
           id="path4237"
           d="m 184.254,383.64077 c -0.73584,-1.19062 -3.06421,0.42708 94.46027,-65.62857 45.375,-30.73356 83.52603,-56.89749 84.78006,-58.14206 l 2.28005,-2.26286 -18.78005,-12.72127 c -10.32903,-6.99669 -26.65506,-18.06606 -36.28006,-24.59859 -9.625,-6.53253 -24.475,-16.59219 -33,-22.35479 -8.525,-5.76261 -28.1,-19.04255 -43.5,-29.51099 -15.4,-10.46843 -32.82648,-22.25363 -38.72551,-26.18933 -5.89903,-3.93571 -10.73653,-7.49453 -10.75,-7.9085 -0.0135,-0.41396 82.66301,-0.63896 183.72551,-0.5 l 183.75,0.25267 0.46603,62 c 1.11418,148.22939 1.10096,185.71436 -0.066,187.12043 -0.96566,1.16358 -29.84596,1.37957 -184.46346,1.37957 -112.73715,0 -183.54119,-0.36027 -183.89684,-0.93571 z"
           style="fill:#0040fb" />
        <path
           sodipodi:nodetypes="csscssssscscscscscccscsssssscsssssssscsssssssssssssss"
           inkscape:connector-curvature="0"
           id="path4235"
           d="m 184.254,383.64077 c -0.73584,-1.19062 -3.06421,0.42708 94.46027,-65.62857 45.375,-30.73356 83.52603,-56.89749 84.78006,-58.14206 l 2.28005,-2.26286 -18.78005,-12.72127 c -10.32903,-6.99669 -26.65506,-18.06606 -36.28006,-24.59859 -9.625,-6.53253 -24.475,-16.59219 -33,-22.35479 -8.525,-5.76261 -28.1,-19.04255 -43.5,-29.51099 -15.4,-10.46843 -32.82648,-22.25363 -38.72551,-26.18933 -5.89903,-3.93571 -10.73653,-7.49453 -10.75,-7.9085 -0.0135,-0.41396 82.66301,-0.63896 183.72551,-0.5 l 183.75,0.25267 0.46603,62 c 1.11418,148.22939 1.10096,185.71436 -0.066,187.12043 -0.96566,1.16358 -29.84596,1.37957 -184.46346,1.37957 -112.73715,0 -183.54119,-0.36027 -183.89684,-0.93571 z m 281.10696,-130.06429 86.35331,0 0,-59.5 0,-59.5 -178.10699,0 c -161.99944,0 -178.05209,0.14305 -177.5,1.58179 0.33385,0.86998 0.60699,2.17722 0.60699,2.90498 0,2.13124 8.78701,6.7835 11.51787,6.0981 2.59694,-0.65179 4.48049,1.18008 2.48283,2.4147 -0.84993,0.52528 0.5687,1.9429 4.3913,4.38819 3.10576,1.98673 6.033,3.61224 6.50497,3.61224 0.47198,0 1.39893,0.6516 2.05988,1.44801 1.69799,2.04595 8.29611,5.81752 7.52908,4.30371 -0.34884,-0.68844 0.0112,-0.46422 0.80015,0.49828 0.78893,0.9625 1.73446,1.75 2.1012,1.75 0.36673,0 2.20591,1.4625 4.08705,3.25 2.40981,2.28986 4.37443,3.25 6.65007,3.25 2.72838,0 3.3651,0.46575 4.10117,3 0.66046,2.27389 2.99531,4.3917 9.64676,8.75 4.82647,3.1625 9.5073,5.75 10.40184,5.75 0.89455,0 1.99915,0.66597 2.45466,1.47993 1.45238,2.59526 7.57007,6.51895 10.21545,6.55187 2.75394,0.0343 6.05572,2.05491 6.05572,3.706 0,1.57234 3.12224,3.79343 4.90739,3.491 0.88008,-0.1491 2.04845,0.71845 2.59638,1.92789 1.43554,3.16866 10.35249,9.02371 12.63794,8.29833 1.4464,-0.45907 1.85829,-0.0758 1.85829,1.72931 0,1.75606 1.15322,2.91403 4.75,4.76954 2.6125,1.34774 6.47984,3.78081 8.59409,5.40683 5.24016,4.03008 10.6127,7.6393 11.37158,7.6393 0.34477,0 1.45288,0.74755 2.46248,1.66122 2.05478,1.85956 4.87171,3.58948 9.32185,5.72471 1.65,0.79169 4.09094,2.60373 5.42431,4.02675 1.33338,1.42303 2.93983,2.58732 3.5699,2.58732 0.63006,0 2.68912,1.39525 4.57568,3.10056 4.8307,4.3666 6.63565,4.96215 13.3268,4.39726 3.24318,-0.2738 44.75568,-0.49782 92.25,-0.49782 z"
           style="fill:#023ef7" />
        <path
           sodipodi:nodetypes="sscscsssssssssssccsssscsscsssssssssscscssssssscssssssssssssssssscssssssssssssssssssssssssssssssssssccssscccsssccsssssssssssss"
           inkscape:connector-curvature="0"
           id="path4233"
           d="m 184.254,383.64077 c -0.73482,-1.18897 -3.34778,0.62633 95.79863,-66.55371 46.1111,-31.24415 84.07175,-57.41572 84.35699,-58.15906 0.43058,-1.12206 16.43957,-1.35152 94.29501,-1.35152 l 93.77638,0 0.60297,2.25 c 0.33164,1.2375 0.60913,29.2725 0.61664,62.3 0.0103,45.38769 -0.27935,60.343 -1.18635,61.25 -1.50702,1.50702 -367.32996,1.76956 -368.26027,0.26429 z m 62.11864,-75.6553 c -1.0129,-1.3905 -2.97115,-2.95761 -4.35166,-3.48248 -1.66495,-0.63301 -2.31323,-1.46713 -1.92552,-2.47749 0.32148,-0.83776 1.31368,-4.03147 2.2049,-7.09715 1.81843,-6.2552 1.07264,-8.0423 -3.57645,-8.57005 -2.12757,-0.24152 -2.96033,0.61801 -5.82373,6.01093 -2.90185,5.46536 -3.62618,6.20229 -5.5089,5.60474 -1.19226,-0.37841 -44.21105,49.04188 -46.1386,48.98428 -2.18764,-5.84076 -1.4705,0.34122 -2.82758,-13.86615 -0.54562,-0.8621 39.08046,-49.69677 43.28618,-52.27027 5.88308,-3.59988 6.10051,-3.87793 5.5982,-7.15904 -0.81199,-5.30403 -1.77649,-5.65281 -8.6756,-3.13727 -5.05484,1.84309 -6.33265,2.0069 -7.03306,0.90163 -0.47076,-0.74287 -0.86281,-1.83473 -0.87124,-2.42636 -0.008,-0.59162 -1.14031,-2.13256 -2.51531,-3.42431 -3.1315,-2.94189 -3.1315,-4.05811 0,-7 1.375,-1.29175 2.50689,-2.83269 2.51531,-3.42431 0.0473,-3.32636 1.6482,-3.6954 7.07799,-1.63166 7.0404,2.67589 7.56388,2.61958 9.44385,-1.01586 1.94269,-3.75675 1.23328,-4.83263 -5.7359,-8.69906 -4.4733,-2.48174 -4.86851,-2.9897 -4.36021,-5.60411 0.30743,-1.58125 0.55896,-4.61875 0.55896,-6.75 0,-3.86461 0.0109,-3.875 4.06574,-3.875 2.23616,0 4.95309,-0.4749 6.03763,-1.05532 1.77444,-0.94966 2.26952,-0.39893 4.94422,5.5 2.98252,6.57781 3.5703,7.03258 7.66929,5.93369 3.22393,-0.86429 3.49778,-3.07853 1.28355,-10.37837 -1.37171,-4.52224 -1.62864,-6.61579 -0.84442,-6.88053 0.61996,-0.2093 2.91031,-1.99147 5.08966,-3.96038 l 3.96245,-3.57984 2.64594,3.08119 c 1.45527,1.69465 3.43344,3.35019 4.39594,3.67899 2.12566,0.72613 2.13782,1.06429 0.26082,7.25164 -1.99494,6.57615 -1.89048,9.13538 0.42344,10.37375 3.66279,1.96026 5.0016,1.10571 8.16986,-5.21482 3.79019,-7.56123 3.5496,-7.28227 5.14133,-5.96126 0.71158,0.59056 3.29669,1.21719 5.74469,1.39251 l 4.45091,0.31875 0.14713,4.5 c 0.0809,2.475 0.31918,5.37023 0.52947,6.43384 0.29042,1.46888 -0.94004,2.6873 -5.11765,5.06757 -4.80995,2.74055 -5.47334,3.49245 -5.28754,5.99291 0.11686,1.57255 0.88036,3.52707 1.69668,4.34339 1.31227,1.31227 2.14797,1.23969 7.21421,-0.62658 5.80621,-2.13885 7.37665,-2.10462 7.37665,0.1608 0,0.68964 1.35,2.54727 3,4.12807 1.65,1.5808 3,3.3808 3,4 0,0.6192 -1.35,2.4192 -3,4 -1.65,1.5808 -3,3.43843 -3,4.12807 0,2.33752 -1.83769,2.40459 -7.53003,0.27481 -6.46142,-2.41753 -8.36625,-1.63974 -8.75751,3.5759 -0.18348,2.44599 0.53769,3.29038 5.28754,6.19098 3.87615,2.36706 5.38711,3.87118 5.11765,5.09447 -0.21029,0.95467 -0.45208,3.62757 -0.53732,5.93976 -0.18989,5.1508 -0.77081,5.77923 -5.4158,5.85873 -2.01549,0.0345 -4.39697,0.39901 -5.29218,0.81003 -1.291,0.59276 -2.26258,-0.60949 -4.69746,-5.81271 -1.6884,-3.60802 -3.52228,-6.56004 -4.0753,-6.56004 -0.55302,0 -2.15166,0.52223 -3.55254,1.16052 -3.01071,1.37177 -3.18078,3.34246 -0.93971,10.88898 1.50954,5.08319 1.50072,5.4745 -0.14509,6.4315 -0.96384,0.56045 -2.88653,2.2565 -4.27264,3.769 -3.09135,3.37322 -4.1707,3.3995 -6.53124,0.15899 z m 5.88434,-3.54354 c 0.7117,-2.24239 -0.20984,-8.70883 -1.55019,-10.87755 -1.29168,-2.08999 -2.63411,-0.3939 -4.12949,5.21739 -1.11828,4.19629 -1.06035,4.91919 0.53548,6.68256 2.04621,2.26104 4.24049,1.82493 5.1442,-1.0224 z m 26.45729,-12.71046 c 0,-3.0908 -1.71176,-5.00799 -6.75,-7.56008 -3.7204,-1.88455 -4.20251,-0.92155 -2.05664,4.10804 1.83226,4.29452 3.88713,6.29705 6.46163,6.29705 1.91051,0 2.34501,-0.52714 2.34501,-2.84501 z m -26.29969,-3.52488 c 1.14849,-1.9674 8.77606,-5.63011 11.72467,-5.63011 2.68126,0 4.93002,-2.91131 4.04009,-5.23042 -0.63398,-1.65213 2.01933,-8.29864 4.64579,-11.63764 2.31114,-2.93814 2.37697,-4.50125 0.27796,-6.60026 -1.97879,-1.9788 -5.28204,-10.58885 -4.6906,-12.22624 0.88191,-2.44154 -1.69471,-5.30544 -4.77324,-5.30544 -3.61335,0 -10.44561,-3.30839 -11.27026,-5.4574 -0.82673,-2.15443 -3.27531,-1.92201 -5.74237,0.54505 -2.51303,2.51303 -7.97375,4.91235 -11.18023,4.91235 -3.1607,0 -4.72777,1.79646 -4.75408,5.45 -0.0239,3.32112 -3.10199,10.89054 -4.87391,11.98565 -1.5795,0.97618 -1.36352,5.10418 0.34107,6.51887 1.73913,1.44335 4.90066,10.54649 4.27177,12.29994 -0.77498,2.16082 1.2595,4.74554 3.73531,4.74554 3.35957,0 11.4756,3.64847 12.17595,5.47357 0.72837,1.89809 4.99127,2.00799 6.07208,0.15654 z m -34.21919,-23.62201 c 2.5558,-1.09555 4.39259,-2.40343 4.08173,-2.9064 -0.31085,-0.50297 -2.54853,-1.59029 -4.97263,-2.41626 -3.87558,-1.32054 -4.65982,-1.32499 -6.49883,-0.0369 -2.52342,1.76748 -2.62873,3.10022 -0.4364,5.52272 2.05502,2.27078 2.15272,2.26874 7.82612,-0.16316 z m 70.46928,0.23314 c 2.51292,-2.03484 1.96291,-4.81659 -1.14753,-5.80381 -2.68489,-0.85215 -10.80287,1.4843 -10.80287,3.1092 0,0.70769 1.9125,1.96368 4.25,2.79109 5.49163,1.94389 5.17577,1.94785 7.7004,-0.0965 z m -57.9504,-24.21449 c 0,-2.83261 -4.64905,-10.15155 -6.78961,-10.68879 -6.15028,-1.54363 -5.13795,5.72335 1.30567,9.37278 4.41603,2.50108 5.48394,2.75735 5.48394,1.31601 z m 43.07835,-1.27675 c 3.9747,-2.25006 5.66938,-5.35907 4.53397,-8.3179 -1.19999,-3.12712 -4.98699,-1.16192 -7.83896,4.0679 -4.05939,7.44393 -3.53293,8.12092 3.30499,4.25 z m -21.50447,-14.39411 c 0.68021,-4.53592 -0.53165,-7.35589 -3.16114,-7.35589 -2.66394,0 -3.69883,3.8946 -2.35598,8.86627 0.68837,2.54855 1.47589,5.0394 1.75005,5.53522 0.88155,1.59428 3.09118,-2.53841 3.76707,-7.0456 z"
           style="fill:#6f6744" />
        <path
           inkscape:connector-curvature="0"
           id="path4231"
           d="m 184.25271,383.63868 c -0.31878,-0.51579 1.34217,-2.24158 3.69098,-3.83508 2.34882,-1.5935 9.89558,-6.72234 16.77058,-11.39742 6.875,-4.67509 18.125,-12.32481 25,-16.99938 6.875,-4.67458 33.65,-22.82768 59.5,-40.34024 25.85,-17.51255 53.8563,-36.48704 62.23622,-42.16554 l 15.23622,-10.32454 92.90679,0 c 83.79635,0 92.96631,0.15511 93.51378,1.58179 0.33385,0.86998 0.60699,28.67998 0.60699,61.8 0,45.50305 -0.29324,60.51145 -1.2,61.41821 -1.50895,1.50895 -367.33005,1.76941 -368.26156,0.2622 z"
           style="fill:#fc0202" />
      </g>
      <rect
         inkscape:export-ydpi="250.64"
         inkscape:export-xdpi="250.64"
         inkscape:export-filename="/Users/antoniohilario/Desktop/SAA/Website Tools/phlegiscope.png"
         transform="matrix(0.72750923,0.68609789,-0.65189155,0.75831221,0,0)"
         y="30.39253"
         x="355.53766"
         height="93.164368"
         width="6.7295361"
         id="rect5050"
         style="opacity:0.98999999;fill:url(#linearGradient5058);fill-opacity:1;stroke:#000000;stroke-width:0.08544675;stroke-miterlimit:4;stroke-opacity:1;stroke-dasharray:none;stroke-dashoffset:0" />
      <path
         inkscape:export-ydpi="250.64"
         inkscape:export-xdpi="250.64"
         inkscape:export-filename="/Users/antoniohilario/Desktop/SAA/Website Tools/phlegiscope.png"
         transform="matrix(1.1518761,0,0,1.1518761,-60.568566,-62.041795)"
         d="m 287.91893,281.17636 c 0,10.38333 -8.41735,18.80068 -18.80067,18.80068 -10.38333,0 -18.80068,-8.41735 -18.80068,-18.80068 0,-10.38333 8.41735,-18.80068 18.80068,-18.80068 10.38332,0 18.80067,8.41735 18.80067,18.80068 z"
         sodipodi:ry="18.800676"
         sodipodi:rx="18.800676"
         sodipodi:cy="281.17636"
         sodipodi:cx="269.11826"
         id="path4266"
         style="opacity:0.98999999;fill:#fff31e;fill-opacity:1;stroke:#000000;stroke-width:0.1;stroke-miterlimit:4;stroke-opacity:1;stroke-dasharray:none;stroke-dashoffset:0"
         sodipodi:type="arc" />
      <path
         inkscape:export-ydpi="250.64"
         inkscape:export-xdpi="250.64"
         inkscape:export-filename="/Users/antoniohilario/Desktop/SAA/Website Tools/phlegiscope.png"
         sodipodi:type="arc"
         style="opacity:0.98999999;fill:#b2a6a6;fill-opacity:1;stroke:#000000;stroke-width:0.1;stroke-miterlimit:4;stroke-opacity:1;stroke-dasharray:none;stroke-dashoffset:0"
         id="path4268"
         sodipodi:cx="269.11826"
         sodipodi:cy="281.17636"
         sodipodi:rx="18.800676"
         sodipodi:ry="18.800676"
         d="m 287.91893,281.17636 c 0,10.38333 -8.41735,18.80068 -18.80067,18.80068 -10.38333,0 -18.80068,-8.41735 -18.80068,-18.80068 0,-10.38333 8.41735,-18.80068 18.80068,-18.80068 10.38332,0 18.80067,8.41735 18.80067,18.80068 z"
         transform="matrix(1.0569121,0,0,1.0569121,-35.012014,-35.340157)" />
    </g>
  </g>
</svg>
